<?xml version="1.0" standalone="no"?>
<!DOCTYPE svg PUBLIC "-//W3C//DTD SVG 20010904//EN"
 "http://www.w3.org/TR/2001/REC-SVG-20010904/DTD/svg10.dtd">
<svg version="1.0" xmlns="http://www.w3.org/2000/svg"
 width="612.000000pt" height="612.000000pt" viewBox="0 0 612.000000 612.000000"
 preserveAspectRatio="xMidYMid meet">

<g transform="translate(0.000000,612.000000) scale(0.100000,-0.100000)"
fill="#000000" stroke="none">
<path d="M0 3060 l0 -3060 3060 0 3060 0 0 3060 0 3060 -3060 0 -3060 0 0
-3060z m2781 1839 c147 -32 242 -117 284 -255 26 -85 30 -211 10 -295 -23 -93
-127 -299 -224 -444 -76 -114 -254 -349 -271 -360 -26 -16 -3 -27 100 -49 39
-8 166 13 244 41 328 118 714 444 857 725 73 143 72 287 -1 353 -19 17 -36 20
-118 20 -80 0 -97 3 -100 16 -7 39 132 61 223 34 157 -45 266 -174 295 -348
25 -146 -13 -267 -122 -393 -215 -248 -693 -498 -1115 -583 -55 -12 -119 -21
-141 -21 -75 0 -76 -4 -20 -93 122 -197 332 -483 527 -722 136 -166 455 -488
591 -595 356 -283 687 -411 950 -371 188 29 275 121 283 297 4 89 9 104 36
104 93 0 97 -276 6 -468 -104 -221 -328 -318 -616 -267 -217 37 -430 143 -679
335 -128 99 -430 403 -567 570 -245 300 -513 695 -717 1058 -32 56 -61 102
-65 102 -13 0 -211 -307 -270 -421 -107 -204 -133 -309 -107 -438 l9 -44 -42
6 c-76 10 -149 87 -188 201 -26 74 -23 227 5 328 72 256 222 502 673 1103 257
343 326 445 368 544 73 172 -88 281 -335 226 -427 -94 -963 -530 -1169 -951
-57 -117 -85 -223 -85 -327 0 -147 44 -246 135 -302 43 -27 57 -30 129 -30
122 0 199 44 248 138 29 59 67 32 54 -39 -11 -55 -83 -124 -161 -154 -81 -31
-242 -39 -338 -16 -154 36 -270 123 -332 250 -46 92 -58 165 -45 280 41 361
339 744 779 1004 223 131 511 230 741 255 79 9 232 6 281 -4z"/>
</g>
</svg>
